<?xml version="1.0" standalone="no"?><!DOCTYPE svg PUBLIC "-//W3C//DTD SVG 1.1//EN" "http://www.w3.org/Graphics/SVG/1.1/DTD/svg11.dtd"><svg viewBox="0 0 100 100" version="1.1" xmlns="http://www.w3.org/2000/svg" xmlns:xlink="http://www.w3.org/1999/xlink" xml:space="preserve" style="fill-rule:evenodd;clip-rule:evenodd;stroke-linejoin:round;stroke-miterlimit:1.41421;" width="100%" height="100%"><path d="M56.003,57.108c0,-0.042 0.034,-0.076 0.076,-0.076l9.006,0c0.042,0 0.076,0.034 0.076,0.076c0,0.042 -0.034,0.075 -0.076,0.075l-9.006,0c-0.042,0.001 -0.076,-0.033 -0.076,-0.075ZM56.078,58.18l9.006,0c0.042,0 0.076,-0.034 0.076,-0.075c0,-0.041 -0.034,-0.075 -0.076,-0.075l-9.006,0c-0.042,0 -0.076,0.034 -0.076,0.075c0,0.041 0.035,0.075 0.076,0.075ZM56.078,59.177l9.006,0c0.042,0 0.076,-0.034 0.076,-0.075c0,-0.042 -0.034,-0.076 -0.076,-0.076l-9.006,0c-0.042,0 -0.076,0.034 -0.076,0.076c0.001,0.041 0.035,0.075 0.076,0.075ZM56.078,60.174l9.006,0c0.042,0 0.076,-0.034 0.076,-0.075c0,-0.042 -0.034,-0.076 -0.076,-0.076l-9.006,0c-0.042,0 -0.076,0.034 -0.076,0.076c0.001,0.041 0.035,0.075 0.076,0.075ZM56.078,61.171l9.006,0c0.042,0 0.076,-0.034 0.076,-0.076c0,-0.042 -0.034,-0.075 -0.076,-0.075l-9.006,0c-0.042,0 -0.076,0.034 -0.076,0.075c0.001,0.042 0.035,0.076 0.076,0.076ZM56.078,62.167l9.006,0c0.042,0 0.076,-0.034 0.076,-0.075c0,-0.042 -0.034,-0.076 -0.076,-0.076l-9.006,0c-0.042,0 -0.076,0.034 -0.076,0.076c0.001,0.041 0.035,0.075 0.076,0.075ZM56.078,63.164l9.006,0c0.042,0 0.076,-0.034 0.076,-0.075c0,-0.042 -0.034,-0.076 -0.076,-0.076l-9.006,0c-0.042,0 -0.076,0.034 -0.076,0.076c0.001,0.041 0.035,0.075 0.076,0.075ZM56.078,64.161l9.006,0c0.042,0 0.076,-0.034 0.076,-0.076c0,-0.042 -0.034,-0.075 -0.076,-0.075l-9.006,0c-0.042,0 -0.076,0.034 -0.076,0.075c0.001,0.042 0.035,0.076 0.076,0.076ZM56.078,65.157l9.006,0c0.042,0 0.076,-0.034 0.076,-0.076c0,-0.042 -0.034,-0.075 -0.076,-0.075l-9.006,0c-0.042,0 -0.076,0.034 -0.076,0.075c0.001,0.042 0.035,0.076 0.076,0.076ZM56.078,66.154l9.006,0c0.042,0 0.076,-0.034 0.076,-0.075c0,-0.042 -0.034,-0.076 -0.076,-0.076l-9.006,0c-0.042,0 -0.076,0.034 -0.076,0.076c0.001,0.041 0.035,0.075 0.076,0.075ZM56.078,67.151l9.006,0c0.042,0 0.076,-0.034 0.076,-0.075c0,-0.042 -0.034,-0.076 -0.076,-0.076l-9.006,0c-0.042,0 -0.076,0.034 -0.076,0.076c0.001,0.041 0.035,0.075 0.076,0.075ZM56.078,68.147l9.006,0c0.042,0 0.076,-0.034 0.076,-0.075c0,-0.042 -0.034,-0.076 -0.076,-0.076l-9.006,0c-0.042,0 -0.076,0.034 -0.076,0.076c0.001,0.041 0.035,0.075 0.076,0.075ZM56.078,69.144l9.006,0c0.042,0 0.076,-0.034 0.076,-0.076c0,-0.042 -0.034,-0.076 -0.076,-0.076l-9.006,0c-0.042,0 -0.076,0.034 -0.076,0.076c0,0.042 0.035,0.076 0.076,0.076ZM56.078,70.141l9.006,0c0.042,0 0.076,-0.034 0.076,-0.076c0,-0.042 -0.034,-0.075 -0.076,-0.075l-9.006,0c-0.042,0 -0.076,0.034 -0.076,0.075c0.001,0.042 0.035,0.076 0.076,0.076ZM56.078,71.138l9.006,0c0.042,0 0.076,-0.034 0.076,-0.075c0,-0.042 -0.034,-0.076 -0.076,-0.076l-9.006,0c-0.042,0 -0.076,0.034 -0.076,0.076c0.001,0.041 0.035,0.075 0.076,0.075ZM56.078,72.134l9.006,0c0.042,0 0.076,-0.034 0.076,-0.075c0,-0.042 -0.034,-0.076 -0.076,-0.076l-9.006,0c-0.042,0 -0.076,0.034 -0.076,0.076c0.001,0.042 0.035,0.075 0.076,0.075ZM56.078,73.131l9.006,0c0.042,0 0.076,-0.034 0.076,-0.076c0,-0.042 -0.034,-0.076 -0.076,-0.076l-9.006,0c-0.042,0 -0.076,0.034 -0.076,0.076c0,0.042 0.035,0.076 0.076,0.076ZM56.078,74.128l9.006,0c0.042,0 0.076,-0.034 0.076,-0.076c0,-0.042 -0.034,-0.076 -0.076,-0.076l-9.006,0c-0.042,0 -0.076,0.034 -0.076,0.076c0,0.042 0.035,0.076 0.076,0.076ZM56.078,75.124l9.006,0c0.042,0 0.076,-0.034 0.076,-0.076c0,-0.042 -0.034,-0.076 -0.076,-0.076l-9.006,0c-0.042,0 -0.076,0.034 -0.076,0.076c0,0.042 0.035,0.076 0.076,0.076ZM56.078,76.121l9.006,0c0.042,0 0.076,-0.034 0.076,-0.076c0,-0.042 -0.034,-0.075 -0.076,-0.075l-9.006,0c-0.042,0 -0.076,0.034 -0.076,0.075c0.001,0.043 0.035,0.076 0.076,0.076ZM56.078,77.118l9.006,0c0.042,0 0.076,-0.034 0.076,-0.075c0,-0.042 -0.034,-0.076 -0.076,-0.076l-9.006,0c-0.042,0 -0.076,0.034 -0.076,0.076c0.001,0.041 0.035,0.075 0.076,0.075ZM56.078,78.115l9.006,0c0.042,0 0.076,-0.034 0.076,-0.076c0,-0.042 -0.034,-0.076 -0.076,-0.076l-9.006,0c-0.042,0 -0.076,0.034 -0.076,0.076c0,0.042 0.035,0.076 0.076,0.076ZM56.078,79.112l9.006,0c0.042,0 0.076,-0.034 0.076,-0.076c0,-0.042 -0.034,-0.076 -0.076,-0.076l-9.006,0c-0.042,0 -0.076,0.034 -0.076,0.076c0,0.042 0.035,0.076 0.076,0.076ZM56.078,80.108l9.006,0c0.042,0 0.076,-0.034 0.076,-0.076c0,-0.042 -0.034,-0.076 -0.076,-0.076l-9.006,0c-0.042,0 -0.076,0.034 -0.076,0.076c0,0.042 0.035,0.076 0.076,0.076ZM56.078,81.105l9.006,0c0.042,0 0.076,-0.034 0.076,-0.076c0,-0.042 -0.034,-0.075 -0.076,-0.075l-9.006,0c-0.042,0 -0.076,0.034 -0.076,0.075c0.001,0.042 0.035,0.076 0.076,0.076ZM56.078,82.102l9.006,0c0.042,0 0.076,-0.034 0.076,-0.076c0,-0.042 -0.034,-0.075 -0.076,-0.075l-9.006,0c-0.042,0 -0.076,0.034 -0.076,0.075c0.001,0.042 0.035,0.076 0.076,0.076ZM56.078,83.099l9.006,0c0.042,0 0.076,-0.034 0.076,-0.075c0,-0.042 -0.034,-0.076 -0.076,-0.076l-9.006,0c-0.042,0 -0.076,0.034 -0.076,0.076c0.001,0.041 0.035,0.075 0.076,0.075ZM56.078,84.095l9.006,0c0.042,0 0.076,-0.034 0.076,-0.076c0,-0.042 -0.034,-0.076 -0.076,-0.076l-9.006,0c-0.042,0 -0.076,0.034 -0.076,0.076c0,0.042 0.035,0.076 0.076,0.076ZM56.078,85.092l9.006,0c0.042,0 0.076,-0.034 0.076,-0.076c0,-0.042 -0.034,-0.076 -0.076,-0.076l-9.006,0c-0.042,0 -0.076,0.034 -0.076,0.076c0,0.042 0.035,0.076 0.076,0.076ZM56.078,86.089l9.006,0c0.042,0 0.076,-0.034 0.076,-0.076c0,-0.042 -0.034,-0.075 -0.076,-0.075l-9.006,0c-0.042,0 -0.076,0.034 -0.076,0.075c0.001,0.042 0.035,0.076 0.076,0.076ZM56.078,87.085l9.006,0c0.042,0 0.076,-0.034 0.076,-0.076c0,-0.042 -0.034,-0.075 -0.076,-0.075l-9.006,0c-0.042,0 -0.076,0.034 -0.076,0.075c0.001,0.042 0.035,0.076 0.076,0.076ZM56.078,88.082l9.006,0c0.042,0 0.076,-0.034 0.076,-0.075c0,-0.042 -0.034,-0.076 -0.076,-0.076l-9.006,0c-0.042,0 -0.076,0.034 -0.076,0.076c0.001,0.041 0.035,0.075 0.076,0.075ZM56.078,89.079l9.006,0c0.042,0 0.076,-0.034 0.076,-0.075c0,-0.042 -0.034,-0.076 -0.076,-0.076l-9.006,0c-0.042,0 -0.076,0.034 -0.076,0.076c0.001,0.041 0.035,0.075 0.076,0.075ZM56.078,90.076l9.006,0c0.042,0 0.076,-0.034 0.076,-0.076c0,-0.042 -0.034,-0.076 -0.076,-0.076l-9.006,0c-0.042,0 -0.076,0.034 -0.076,0.076c0,0.042 0.035,0.076 0.076,0.076ZM95,50c0,24.813 -20.187,45 -45,45c-24.813,0 -45,-20.187 -45,-45c0,-24.813 20.187,-45 45,-45c24.813,0 45,20.187 45,45ZM6.508,50c0,11.081 4.172,21.202 11.019,28.89c6.517,-5.859 14.475,-9.841 23.083,-11.537c0.246,-6.565 0.475,-13.059 0.697,-19.399l-1.801,0c-0.008,0 -0.016,0 -0.025,-0.001c-0.024,-0.002 -0.044,-0.014 -0.068,-0.018c-0.004,-0.001 -0.008,-0.001 -0.011,-0.003c-0.509,-0.082 -0.917,-0.456 -1.023,-0.967c-0.107,-0.522 0.132,-1.033 0.558,-1.302l-0.499,-0.499c-0.048,-0.048 -0.077,-0.114 -0.077,-0.187l0,-1.013l-0.449,-1.027l0,-0.001c-0.008,-0.017 -0.008,-0.037 -0.012,-0.056c-0.003,-0.016 -0.009,-0.031 -0.01,-0.047c0,-0.001 0,-0.001 0,-0.002c0,-0.012 0.005,-0.022 0.007,-0.034c0.003,-0.022 0.005,-0.045 0.013,-0.065c0.007,-0.017 0.019,-0.03 0.029,-0.045c0.009,-0.013 0.015,-0.028 0.027,-0.04c0.017,-0.018 0.039,-0.03 0.06,-0.042c0.008,-0.005 0.014,-0.012 0.023,-0.016l0.001,0c0.018,-0.008 0.039,-0.009 0.059,-0.013c0.015,-0.003 0.029,-0.009 0.043,-0.009l0.269,0l1.09,-1.09c-0.138,-0.009 -0.248,-0.121 -0.248,-0.261l0,-1.102c0,-0.146 0.118,-0.264 0.264,-0.264l2.207,0l0,-1.57l-0.154,0c-0.146,0 -0.264,-0.118 -0.264,-0.264l0,-1.231c0,-0.146 0.118,-0.264 0.264,-0.264l0.516,0l0,-13.903l-0.617,-0.789c-0.003,-0.004 -0.001,-0.009 -0.004,-0.013c-0.031,-0.043 -0.052,-0.093 -0.052,-0.15l0,-0.58c0,-0.146 0.118,-0.264 0.264,-0.264l0.265,0l0.585,-0.585l0,-7.786c0,-0.146 0.118,-0.264 0.264,-0.264l0.166,0l0,-4.558c0,-0.146 0.118,-0.264 0.264,-0.264l0.07,0l0,-0.339c-20.812,3.231 -36.793,21.27 -36.793,42.974ZM48.246,46.645c-0.029,-0.31 -0.252,-0.56 -0.554,-0.629l-8.252,0c-0.379,0.086 -0.623,0.459 -0.544,0.841c0.064,0.309 0.317,0.536 0.631,0.568l8.077,0c0.391,-0.039 0.679,-0.388 0.642,-0.78ZM54.109,54.382l0,38.91c0.266,-0.025 0.532,-0.055 0.797,-0.085l0,-38.825l-0.797,0ZM57.499,53.854l1.364,0l0,-1.195l-1.364,0l0,1.195ZM59.391,52.659l0,1.195l4.272,0l0,-1.195l-4.272,0ZM55.433,54.382l0,38.758c0.21,-0.026 0.421,-0.051 0.63,-0.08c-0.034,-0.008 -0.061,-0.034 -0.061,-0.069c0,-0.042 0.034,-0.076 0.076,-0.076l0.953,0c1.356,-0.221 2.693,-0.502 4.004,-0.846l-4.958,0c-0.042,0 -0.076,-0.034 -0.076,-0.076c0,-0.042 0.034,-0.075 0.076,-0.075l5.488,0c0.916,-0.253 1.82,-0.535 2.711,-0.846l-8.199,0c-0.042,0 -0.076,-0.034 -0.076,-0.076c0,-0.042 0.034,-0.075 0.076,-0.075l8.645,0c0.338,-0.122 0.671,-0.255 1.006,-0.385l0,-36.154l-10.295,0ZM74.244,85.454l-2.172,0l0,1.998c0.737,-0.436 1.464,-0.886 2.172,-1.363l0,-0.635ZM74.395,85.379l0,0.607c0.358,-0.243 0.707,-0.499 1.057,-0.752l0,-2.477l-7.871,0l0,2.547l0.655,0c0.042,0 0.076,0.034 0.076,0.076l0,4.056c0.188,-0.088 0.381,-0.169 0.568,-0.259l0,-3.796c0,-0.042 0.034,-0.076 0.075,-0.076l2.323,0c0.042,0 0.076,0.034 0.076,0.076l0,2.487c0.19,-0.108 0.379,-0.216 0.567,-0.326l0,-2.161c0,-0.042 0.034,-0.076 0.076,-0.076l2.323,0c0.041,-0.002 0.075,0.032 0.075,0.074ZM71.203,85.454l-2.172,0l0,3.643c0.737,-0.36 1.459,-0.745 2.172,-1.145l0,-2.498ZM67.582,82.228l7.552,0c-2.187,-2.508 -4.723,-4.663 -7.552,-6.418l0,6.418ZM79.172,82.228c0.518,-0.469 1.024,-0.95 1.519,-1.444l0.24,-0.364l-6.747,0c0.571,0.582 1.122,1.184 1.652,1.808l3.336,0ZM80.715,79.892c-3.903,-3.439 -8.315,-6.179 -13.134,-8.148l0,3.442c2.204,1.337 4.233,2.915 6.069,4.705l7.065,0l0,0.001ZM67.582,89.765c0.194,-0.086 0.387,-0.174 0.58,-0.262l0,-4.048l-0.58,0l0,4.31ZM75.98,84.858c0.89,-0.665 1.746,-1.372 2.582,-2.102l-2.582,0l0,2.102ZM82.12,79.29c-4.285,-3.855 -9.169,-6.878 -14.539,-8.988l0,0.869c5.139,2.073 9.827,5.005 13.939,8.721l0.025,0c0.192,-0.201 0.388,-0.397 0.575,-0.602ZM67.054,54.382l-0.797,0l0,35.945c0.266,-0.108 0.534,-0.21 0.797,-0.323l0,-35.622ZM52.259,85.379l0,8.054c0.258,-0.013 0.513,-0.041 0.77,-0.059l0,-7.995c0,-0.042 0.034,-0.076 0.075,-0.076l0.476,0l0,-2.547l-6.434,0c0.011,0.231 0.019,0.463 0.03,0.695l0.477,9.976c0.029,0.002 0.057,0.005 0.087,0.007l0,-8.054c0,-0.042 0.034,-0.076 0.076,-0.076l4.367,0c0.042,-0.001 0.076,0.033 0.076,0.075ZM53.581,68.425c-2.331,-0.18 -4.689,-0.183 -7.02,-0.01c0.025,0.673 0.053,1.35 0.078,2.024c2.305,-0.229 4.636,-0.222 6.942,0.023l0,-2.037l0,0ZM46.659,70.967c0.055,1.437 0.11,2.872 0.167,4.314c0.092,2.316 0.192,4.632 0.298,6.947l6.456,0l0,-11.236c-2.298,-0.248 -4.623,-0.256 -6.921,-0.025ZM53.18,93.363c0.134,-0.01 0.267,-0.02 0.4,-0.031l0,-7.878l-0.4,0l0,7.909ZM53.581,67.099c-2.348,-0.176 -4.722,-0.178 -7.069,-0.007c0.01,0.266 0.019,0.529 0.029,0.794c2.338,-0.172 4.702,-0.169 7.04,0.01l0,-0.797ZM45.974,66.865c0,-0.002 0.001,-0.003 0.001,-0.005c-0.239,-6.397 -0.462,-12.725 -0.678,-18.907l-0.59,0l0,45.204c0.8,0.098 1.605,0.175 2.418,0.228l-0.474,-9.91c-0.015,-0.32 -0.026,-0.64 -0.041,-0.96c-0.001,-0.008 -0.005,-0.016 -0.005,-0.024c0,-0.006 0.003,-0.01 0.003,-0.016c-0.11,-2.391 -0.213,-4.783 -0.308,-7.174c-0.061,-1.519 -0.118,-3.031 -0.176,-4.545c0,-0.002 -0.001,-0.003 -0.001,-0.004c0,-0.003 0.001,-0.006 0.001,-0.009c-0.05,-1.295 -0.099,-2.587 -0.148,-3.877c-0.002,0 -0.002,0 -0.002,-0.001ZM34.011,85.454l-2.172,0l0,4.048c0.714,0.33 1.438,0.639 2.172,0.93l0,-4.978ZM34.162,85.379l0,5.114c1.74,0.683 3.532,1.261 5.373,1.718l0.419,-8.758c0.011,-0.232 0.019,-0.464 0.03,-0.696l-15.436,0l0,2.477c0.35,0.254 0.699,0.509 1.057,0.752l0,-0.607c0,-0.042 0.034,-0.076 0.075,-0.076l2.323,0c0.042,0 0.075,0.034 0.075,0.076l0,2.16c0.188,0.11 0.377,0.219 0.567,0.326l0,-2.487c0,-0.042 0.034,-0.076 0.075,-0.076l2.323,0c0.042,0 0.075,0.034 0.075,0.076l0,3.796c0.187,0.09 0.379,0.172 0.568,0.259l0,-4.056c0,-0.042 0.034,-0.076 0.075,-0.076l2.323,0c0.044,0.002 0.078,0.036 0.078,0.078ZM30.969,85.454l-2.172,0l0,2.498c0.713,0.4 1.435,0.785 2.172,1.145l0,-3.643ZM27.928,85.454l-2.172,0l0,0.635c0.708,0.477 1.435,0.927 2.172,1.363l0,-1.998ZM40.424,72.21c-6.046,1.812 -11.397,5.266 -15.544,10.018l15.127,0c0.106,-2.316 0.206,-4.631 0.298,-6.947c0.041,-1.027 0.079,-2.047 0.119,-3.071ZM40.538,69.261c-7.888,1.64 -15.215,5.307 -21.259,10.631l7.067,0c3.948,-3.855 8.762,-6.68 14.099,-8.248c0.031,-0.795 0.063,-1.591 0.093,-2.383ZM19.309,80.784c0.495,0.493 1.001,0.975 1.519,1.444l3.336,0c0.529,-0.624 1.078,-1.227 1.647,-1.808l-6.743,0l0.241,0.364ZM40.59,67.896c-8.469,1.691 -16.298,5.62 -22.714,11.39c0.188,0.206 0.386,0.403 0.578,0.606l0.025,0c6.229,-5.63 13.858,-9.49 22.081,-11.176c0.009,-0.273 0.02,-0.546 0.03,-0.82ZM21.438,82.756c0.836,0.73 1.692,1.436 2.582,2.102l0,-2.102l-2.582,0ZM40.058,92.331c0.781,0.183 1.57,0.345 2.367,0.486l0,-44.864l-0.59,0c-0.273,7.789 -0.556,15.809 -0.87,23.91c0,0.004 0,0.008 0,0.012c-0.044,1.143 -0.087,2.282 -0.133,3.427c-0.095,2.391 -0.198,4.783 -0.308,7.174c0,0.005 0.003,0.01 0.003,0.016c0,0.008 -0.004,0.016 -0.005,0.024c-0.015,0.32 -0.026,0.64 -0.041,0.96l-0.423,8.855ZM42.953,92.912c0.406,0.066 0.815,0.123 1.225,0.178l0,-45.137l-1.225,0l0,44.959ZM48.057,45.052l-8.984,0l0.436,0.436l8.112,0l0.436,-0.436ZM38.557,43.095l0.24,0.55l9.536,0l0.24,-0.55l-10.016,0ZM48.242,44.173l-9.354,0l0,0.694l0.034,0.034l9.286,0l0.034,-0.034l0,-0.694ZM47.964,42.567l-1.087,-1.086l-6.623,0l-1.087,1.086l8.797,0ZM47.341,40.379l-7.551,0l0,0.574l7.551,0l0,-0.574ZM44.87,39.851l0,-1.571l-2.609,0l0,1.571l2.609,0ZM45.287,37.048l-3.442,0l0,0.703l3.442,0l0,-0.703ZM44.507,36.52l0,-13.73l-1.882,0l0,13.73l1.882,0ZM45.049,21.742l-2.967,0l0.407,0.521l2.153,0l0.407,-0.521ZM41.952,21.351l0,0.224l0.012,0.016l3.203,0l0.012,-0.015l0,-0.225l-3.227,0l0,0ZM43.065,12.716l0,7.367l1,0l0,-7.367l-1,0l0,0ZM44.432,20.823l-0.211,-0.211l-1.31,0l-0.211,0.211l1.732,0ZM43.636,12.188l0,-4.295l-0.14,0l0,4.295l0.14,0ZM50,93.492c0.707,0 1.409,-0.02 2.108,-0.053l0,-7.984l-4.216,0l0,7.984c0.699,0.033 1.401,0.053 2.108,0.053ZM93.492,50c0,-23.981 -19.51,-43.491 -43.491,-43.491c-2.095,0 -4.154,0.158 -6.171,0.445l0,0.411l0.07,0c0.146,0 0.264,0.118 0.264,0.264l0,4.559l0.166,0c0.146,0 0.264,0.118 0.264,0.264l0,7.786l0.585,0.585l0.264,0c0.146,0 0.264,0.118 0.264,0.264l0,0.58c0,0.057 -0.022,0.107 -0.052,0.15c-0.003,0.004 -0.001,0.009 -0.003,0.013l-0.617,0.789l0,13.901l0.516,0c0.146,0 0.264,0.118 0.264,0.264l0,1.231c0,0.146 -0.118,0.264 -0.264,0.264l-0.152,0l0,1.571l2.207,0c0.146,0 0.264,0.118 0.264,0.264l0,1.102c0,0.14 -0.11,0.252 -0.248,0.261l1.09,1.09l0.269,0c0.014,0 0.027,0.006 0.04,0.008c0.021,0.004 0.043,0.005 0.062,0.013l0.001,0c0.009,0.004 0.015,0.011 0.023,0.016c0.022,0.012 0.043,0.025 0.06,0.042c0.011,0.012 0.018,0.026 0.027,0.04c0.01,0.015 0.022,0.028 0.029,0.045c0.008,0.021 0.01,0.043 0.013,0.065c0.002,0.012 0.007,0.022 0.007,0.034c0,0.001 0,0.001 0,0.002c0,0.016 -0.007,0.031 -0.01,0.047c-0.004,0.019 -0.005,0.038 -0.012,0.055l0,0.001l-0.449,1.027l0,1.013c0,0.073 -0.03,0.139 -0.077,0.187l-0.5,0.5c0.321,0.201 0.542,0.537 0.579,0.932c0.064,0.683 -0.44,1.292 -1.123,1.356c-0.008,0.001 -0.016,0.001 -0.025,0.001l-1.801,0c0.213,6.086 0.433,12.316 0.668,18.611c2.354,-0.17 4.735,-0.168 7.089,0.006l0,-12.45c0,-0.146 0.118,-0.264 0.264,-0.264l3.126,0l0,-1.459c0,-0.146 0.118,-0.264 0.264,-0.264l1.629,0l0,-8.951c0,-0.146 0.118,-0.264 0.264,-0.264c0.146,0 0.264,0.118 0.264,0.264l0,8.951l1.589,0l0,-6.523c0,-0.146 0.118,-0.264 0.264,-0.264c0.146,0 0.264,0.118 0.264,0.264l0,6.523l2.419,0c0.146,0 0.264,0.118 0.264,0.264l0,1.459l3.126,0c0.146,0 0.264,0.118 0.264,0.264l0,15.613c5.504,2.136 10.504,5.221 14.887,9.163c6.848,-7.689 11.022,-17.811 11.022,-28.894Z"/></svg>