<svg xmlns="http://www.w3.org/2000/svg" xmlns:xlink="http://www.w3.org/1999/xlink" version="1.1" x="0px" y="0px" viewBox="0 0 100 125" enable-background="new 0 0 100 100" xml:space="preserve"><g><path fill="#000000" d="M56.003,57.108c0-0.042,0.034-0.076,0.076-0.076h9.006c0.042,0,0.076,0.034,0.076,0.076   c0,0.042-0.034,0.075-0.076,0.075h-9.006C56.037,57.184,56.003,57.15,56.003,57.108z M56.078,58.18h9.006   c0.042,0,0.076-0.034,0.076-0.075s-0.034-0.075-0.076-0.075h-9.006c-0.042,0-0.076,0.034-0.076,0.075S56.037,58.18,56.078,58.18z    M56.078,59.177h9.006c0.042,0,0.076-0.034,0.076-0.075c0-0.042-0.034-0.076-0.076-0.076h-9.006c-0.042,0-0.076,0.034-0.076,0.076   C56.003,59.143,56.037,59.177,56.078,59.177z M56.078,60.174h9.006c0.042,0,0.076-0.034,0.076-0.075   c0-0.042-0.034-0.076-0.076-0.076h-9.006c-0.042,0-0.076,0.034-0.076,0.076C56.003,60.14,56.037,60.174,56.078,60.174z    M56.078,61.171h9.006c0.042,0,0.076-0.034,0.076-0.076c0-0.042-0.034-0.075-0.076-0.075h-9.006c-0.042,0-0.076,0.034-0.076,0.075   C56.003,61.137,56.037,61.171,56.078,61.171z M56.078,62.167h9.006c0.042,0,0.076-0.034,0.076-0.075   c0-0.042-0.034-0.076-0.076-0.076h-9.006c-0.042,0-0.076,0.034-0.076,0.076C56.003,62.133,56.037,62.167,56.078,62.167z    M56.078,63.164h9.006c0.042,0,0.076-0.034,0.076-0.075c0-0.042-0.034-0.076-0.076-0.076h-9.006c-0.042,0-0.076,0.034-0.076,0.076   C56.003,63.13,56.037,63.164,56.078,63.164z M56.078,64.161h9.006c0.042,0,0.076-0.034,0.076-0.076   c0-0.042-0.034-0.075-0.076-0.075h-9.006c-0.042,0-0.076,0.034-0.076,0.075C56.003,64.127,56.037,64.161,56.078,64.161z    M56.078,65.157h9.006c0.042,0,0.076-0.034,0.076-0.076c0-0.042-0.034-0.075-0.076-0.075h-9.006c-0.042,0-0.076,0.034-0.076,0.075   C56.003,65.123,56.037,65.157,56.078,65.157z M56.078,66.154h9.006c0.042,0,0.076-0.034,0.076-0.075   c0-0.042-0.034-0.076-0.076-0.076h-9.006c-0.042,0-0.076,0.034-0.076,0.076C56.003,66.12,56.037,66.154,56.078,66.154z    M56.078,67.151h9.006c0.042,0,0.076-0.034,0.076-0.075c0-0.042-0.034-0.076-0.076-0.076h-9.006c-0.042,0-0.076,0.034-0.076,0.076   C56.003,67.117,56.037,67.151,56.078,67.151z M56.078,68.147h9.006c0.042,0,0.076-0.034,0.076-0.075   c0-0.042-0.034-0.076-0.076-0.076h-9.006c-0.042,0-0.076,0.034-0.076,0.076C56.003,68.113,56.037,68.147,56.078,68.147z    M56.078,69.144h9.006c0.042,0,0.076-0.034,0.076-0.076s-0.034-0.076-0.076-0.076h-9.006c-0.042,0-0.076,0.034-0.076,0.076   S56.037,69.144,56.078,69.144z M56.078,70.141h9.006c0.042,0,0.076-0.034,0.076-0.076c0-0.042-0.034-0.075-0.076-0.075h-9.006   c-0.042,0-0.076,0.034-0.076,0.075C56.003,70.107,56.037,70.141,56.078,70.141z M56.078,71.138h9.006   c0.042,0,0.076-0.034,0.076-0.075c0-0.042-0.034-0.076-0.076-0.076h-9.006c-0.042,0-0.076,0.034-0.076,0.076   C56.003,71.104,56.037,71.138,56.078,71.138z M56.078,72.134h9.006c0.042,0,0.076-0.034,0.076-0.075   c0-0.042-0.034-0.076-0.076-0.076h-9.006c-0.042,0-0.076,0.034-0.076,0.076C56.003,72.101,56.037,72.134,56.078,72.134z    M56.078,73.131h9.006c0.042,0,0.076-0.034,0.076-0.076s-0.034-0.076-0.076-0.076h-9.006c-0.042,0-0.076,0.034-0.076,0.076   S56.037,73.131,56.078,73.131z M56.078,74.128h9.006c0.042,0,0.076-0.034,0.076-0.076s-0.034-0.076-0.076-0.076h-9.006   c-0.042,0-0.076,0.034-0.076,0.076S56.037,74.128,56.078,74.128z M56.078,75.124h9.006c0.042,0,0.076-0.034,0.076-0.076   s-0.034-0.076-0.076-0.076h-9.006c-0.042,0-0.076,0.034-0.076,0.076S56.037,75.124,56.078,75.124z M56.078,76.121h9.006   c0.042,0,0.076-0.034,0.076-0.076c0-0.042-0.034-0.075-0.076-0.075h-9.006c-0.042,0-0.076,0.034-0.076,0.075   C56.003,76.088,56.037,76.121,56.078,76.121z M56.078,77.118h9.006c0.042,0,0.076-0.034,0.076-0.075   c0-0.042-0.034-0.076-0.076-0.076h-9.006c-0.042,0-0.076,0.034-0.076,0.076C56.003,77.084,56.037,77.118,56.078,77.118z    M56.078,78.115h9.006c0.042,0,0.076-0.034,0.076-0.076s-0.034-0.076-0.076-0.076h-9.006c-0.042,0-0.076,0.034-0.076,0.076   S56.037,78.115,56.078,78.115z M56.078,79.112h9.006c0.042,0,0.076-0.034,0.076-0.076s-0.034-0.076-0.076-0.076h-9.006   c-0.042,0-0.076,0.034-0.076,0.076S56.037,79.112,56.078,79.112z M56.078,80.108h9.006c0.042,0,0.076-0.034,0.076-0.076   s-0.034-0.076-0.076-0.076h-9.006c-0.042,0-0.076,0.034-0.076,0.076S56.037,80.108,56.078,80.108z M56.078,81.105h9.006   c0.042,0,0.076-0.034,0.076-0.076c0-0.042-0.034-0.075-0.076-0.075h-9.006c-0.042,0-0.076,0.034-0.076,0.075   C56.003,81.071,56.037,81.105,56.078,81.105z M56.078,82.102h9.006c0.042,0,0.076-0.034,0.076-0.076   c0-0.042-0.034-0.075-0.076-0.075h-9.006c-0.042,0-0.076,0.034-0.076,0.075C56.003,82.068,56.037,82.102,56.078,82.102z    M56.078,83.099h9.006c0.042,0,0.076-0.034,0.076-0.075c0-0.042-0.034-0.076-0.076-0.076h-9.006c-0.042,0-0.076,0.034-0.076,0.076   C56.003,83.065,56.037,83.099,56.078,83.099z M56.078,84.095h9.006c0.042,0,0.076-0.034,0.076-0.076s-0.034-0.076-0.076-0.076   h-9.006c-0.042,0-0.076,0.034-0.076,0.076S56.037,84.095,56.078,84.095z M56.078,85.092h9.006c0.042,0,0.076-0.034,0.076-0.076   s-0.034-0.076-0.076-0.076h-9.006c-0.042,0-0.076,0.034-0.076,0.076S56.037,85.092,56.078,85.092z M56.078,86.089h9.006   c0.042,0,0.076-0.034,0.076-0.076c0-0.042-0.034-0.075-0.076-0.075h-9.006c-0.042,0-0.076,0.034-0.076,0.075   C56.003,86.055,56.037,86.089,56.078,86.089z M56.078,87.085h9.006c0.042,0,0.076-0.034,0.076-0.076   c0-0.042-0.034-0.075-0.076-0.075h-9.006c-0.042,0-0.076,0.034-0.076,0.075C56.003,87.051,56.037,87.085,56.078,87.085z    M56.078,88.082h9.006c0.042,0,0.076-0.034,0.076-0.075c0-0.042-0.034-0.076-0.076-0.076h-9.006c-0.042,0-0.076,0.034-0.076,0.076   C56.003,88.048,56.037,88.082,56.078,88.082z M56.078,89.079h9.006c0.042,0,0.076-0.034,0.076-0.075   c0-0.042-0.034-0.076-0.076-0.076h-9.006c-0.042,0-0.076,0.034-0.076,0.076C56.003,89.045,56.037,89.079,56.078,89.079z    M56.078,90.076h9.006c0.042,0,0.076-0.034,0.076-0.076s-0.034-0.076-0.076-0.076h-9.006c-0.042,0-0.076,0.034-0.076,0.076   S56.037,90.076,56.078,90.076z M95,50c0,24.813-20.187,45-45,45S5,74.813,5,50S25.187,5,50,5S95,25.187,95,50z M6.508,50   c0,11.081,4.172,21.202,11.019,28.89c6.517-5.859,14.475-9.841,23.083-11.537c0.246-6.565,0.475-13.059,0.697-19.399h-1.801h0   c-0.008,0-0.016,0-0.025-0.001c-0.024-0.002-0.044-0.014-0.068-0.018c-0.004-0.001-0.008-0.001-0.011-0.003   c-0.509-0.082-0.917-0.456-1.023-0.967c-0.107-0.522,0.132-1.033,0.558-1.302l-0.499-0.499c-0.048-0.048-0.077-0.114-0.077-0.187   v-1.013l-0.449-1.027c0,0,0-0.001,0-0.001c-0.008-0.017-0.008-0.037-0.012-0.056c-0.003-0.016-0.009-0.031-0.01-0.047   c0-0.001,0-0.001,0-0.002c0-0.012,0.005-0.022,0.007-0.034c0.003-0.022,0.005-0.045,0.013-0.065   c0.007-0.017,0.019-0.03,0.029-0.045c0.009-0.013,0.015-0.028,0.027-0.04c0.017-0.018,0.039-0.03,0.06-0.042   c0.008-0.005,0.014-0.012,0.023-0.016c0,0,0.001,0,0.001,0c0.018-0.008,0.039-0.009,0.059-0.013   c0.015-0.003,0.029-0.009,0.043-0.009c0.001,0,0.002,0,0.002,0h0.267l1.09-1.09c-0.138-0.009-0.248-0.121-0.248-0.261v-1.102   c0-0.146,0.118-0.264,0.264-0.264h2.207V38.28H41.58c-0.146,0-0.264-0.118-0.264-0.264v-1.231c0-0.146,0.118-0.264,0.264-0.264   h0.516V22.618l-0.617-0.789c-0.003-0.004-0.001-0.009-0.004-0.013c-0.031-0.043-0.052-0.093-0.052-0.15v-0.58   c0-0.146,0.118-0.264,0.264-0.264h0.265l0.585-0.585v-7.786c0-0.146,0.118-0.264,0.264-0.264h0.166V7.629   c0-0.146,0.118-0.264,0.264-0.264h0.07V7.026C22.489,10.257,6.508,28.296,6.508,50z M48.246,46.645   c-0.029-0.31-0.252-0.56-0.554-0.629H39.44c-0.379,0.086-0.623,0.459-0.544,0.841c0.064,0.309,0.317,0.536,0.631,0.568h8.077   C47.995,47.386,48.283,47.037,48.246,46.645z M54.109,54.382v38.91c0.266-0.025,0.532-0.055,0.797-0.085V54.382H54.109z    M57.499,53.854h1.364v-1.195h-1.364V53.854z M59.391,52.659v1.195h4.272v-1.195H59.391z M55.433,54.382V93.14   c0.21-0.026,0.421-0.051,0.63-0.08c-0.034-0.008-0.061-0.034-0.061-0.069c0-0.042,0.034-0.076,0.076-0.076h0.953   c1.356-0.221,2.693-0.502,4.004-0.846h-4.958c-0.042,0-0.076-0.034-0.076-0.076c0-0.042,0.034-0.075,0.076-0.075h5.488   c0.916-0.253,1.82-0.535,2.711-0.846h-8.199c-0.042,0-0.076-0.034-0.076-0.076s0.034-0.075,0.076-0.075h8.645   c0.338-0.122,0.671-0.255,1.006-0.385V54.382H55.433z M74.244,85.454h-2.172v1.998c0.737-0.436,1.464-0.886,2.172-1.363V85.454z    M74.395,85.379v0.607c0.358-0.243,0.707-0.499,1.057-0.752v-2.477h-7.871v2.547h0.655c0.042,0,0.076,0.034,0.076,0.076v4.056   c0.188-0.088,0.381-0.169,0.568-0.259v-3.796c0-0.042,0.034-0.076,0.075-0.076h2.323c0.042,0,0.076,0.034,0.076,0.076v2.487   c0.19-0.108,0.379-0.216,0.567-0.326v-2.161c0-0.042,0.034-0.076,0.076-0.076h2.323C74.361,85.303,74.395,85.337,74.395,85.379z    M71.203,85.454h-2.172v3.643c0.737-0.36,1.459-0.745,2.172-1.145V85.454z M67.582,82.228h7.552   c-2.187-2.508-4.723-4.663-7.552-6.418V82.228z M79.172,82.228c0.518-0.469,1.024-0.95,1.519-1.444l0.24-0.364h-6.747   c0.571,0.582,1.122,1.184,1.652,1.808H79.172z M80.715,79.892c-3.903-3.439-8.315-6.179-13.134-8.148v3.442   c2.204,1.337,4.233,2.915,6.069,4.705H80.715z M67.582,89.765c0.194-0.086,0.387-0.174,0.58-0.262v-4.048h-0.58V89.765z    M75.98,84.858c0.89-0.665,1.746-1.372,2.582-2.102H75.98V84.858z M82.12,79.29c-4.285-3.855-9.169-6.878-14.539-8.988v0.869   c5.139,2.073,9.827,5.005,13.939,8.721h0.025C81.737,79.691,81.933,79.495,82.12,79.29z M67.054,54.382h-0.797v35.945   c0.266-0.108,0.534-0.21,0.797-0.323V54.382z M52.259,85.379v8.054c0.258-0.013,0.513-0.041,0.77-0.059v-7.995   c0-0.042,0.034-0.076,0.075-0.076h0.476v-2.547h-6.434c0.011,0.231,0.019,0.463,0.03,0.695l0.477,9.976   c0.029,0.002,0.057,0.005,0.087,0.007v-8.054c0-0.042,0.034-0.076,0.076-0.076h4.367C52.225,85.303,52.259,85.337,52.259,85.379z    M53.581,68.425c-2.331-0.18-4.689-0.183-7.02-0.01c0.025,0.673,0.053,1.35,0.078,2.024c2.305-0.229,4.636-0.222,6.942,0.023   V68.425z M46.659,70.967c0.055,1.437,0.11,2.872,0.167,4.314c0.092,2.316,0.192,4.632,0.298,6.947h6.456V70.992   C51.282,70.744,48.957,70.736,46.659,70.967z M53.18,93.363c0.134-0.01,0.267-0.02,0.4-0.031v-7.878h-0.4V93.363z M53.581,67.099   c-2.348-0.176-4.722-0.178-7.069-0.007c0.01,0.266,0.019,0.529,0.029,0.794c2.338-0.172,4.702-0.169,7.04,0.01V67.099z    M45.974,66.865c0-0.002,0.001-0.003,0.001-0.005c-0.239-6.397-0.462-12.725-0.678-18.907h-0.59v45.204   c0.8,0.098,1.605,0.175,2.418,0.228l-0.474-9.91c-0.015-0.32-0.026-0.64-0.041-0.96c-0.001-0.008-0.005-0.016-0.005-0.024   c0-0.006,0.003-0.01,0.003-0.016c-0.11-2.391-0.213-4.783-0.308-7.174c-0.061-1.519-0.118-3.031-0.176-4.545   c0-0.002-0.001-0.003-0.001-0.004c0-0.003,0.001-0.006,0.001-0.009c-0.05-1.295-0.099-2.587-0.148-3.877   C45.974,66.866,45.974,66.866,45.974,66.865z M34.011,85.454h-2.172v4.048c0.714,0.33,1.438,0.639,2.172,0.93V85.454z    M34.162,85.379v5.114c1.74,0.683,3.532,1.261,5.373,1.718l0.419-8.758c0.011-0.232,0.019-0.464,0.03-0.696H24.548v2.477   c0.35,0.254,0.699,0.509,1.057,0.752v-0.607c0-0.042,0.034-0.076,0.075-0.076h2.323c0.042,0,0.075,0.034,0.075,0.076v2.16   c0.188,0.11,0.377,0.219,0.567,0.326v-2.487c0-0.042,0.034-0.076,0.075-0.076h2.323c0.042,0,0.075,0.034,0.075,0.076v3.796   c0.187,0.09,0.379,0.172,0.568,0.259v-4.056c0-0.042,0.034-0.076,0.075-0.076h2.323C34.128,85.303,34.162,85.337,34.162,85.379z    M30.969,85.454h-2.172v2.498c0.713,0.4,1.435,0.785,2.172,1.145V85.454z M27.928,85.454h-2.172v0.635   c0.708,0.477,1.435,0.927,2.172,1.363V85.454z M40.424,72.21c-6.046,1.812-11.397,5.266-15.544,10.018h15.127   c0.106-2.316,0.206-4.631,0.298-6.947C40.346,74.254,40.384,73.234,40.424,72.21z M40.538,69.261   c-7.888,1.64-15.215,5.307-21.259,10.631h7.067c3.948-3.855,8.762-6.68,14.099-8.248C40.476,70.849,40.508,70.053,40.538,69.261z    M19.309,80.784c0.495,0.493,1.001,0.975,1.519,1.444h3.336c0.529-0.624,1.078-1.227,1.647-1.808h-6.743L19.309,80.784z    M40.59,67.896c-8.469,1.691-16.298,5.62-22.714,11.39c0.188,0.206,0.386,0.403,0.578,0.606h0.025   c6.229-5.63,13.858-9.49,22.081-11.176C40.569,68.443,40.58,68.17,40.59,67.896z M21.438,82.756   c0.836,0.73,1.692,1.436,2.582,2.102v-2.102H21.438z M40.058,92.331c0.781,0.183,1.57,0.345,2.367,0.486V47.953h-0.59   c-0.273,7.789-0.556,15.809-0.87,23.91c0,0.004,0,0.008,0,0.012c-0.044,1.143-0.087,2.282-0.133,3.427   c-0.095,2.391-0.198,4.783-0.308,7.174c0,0.005,0.003,0.01,0.003,0.016c0,0.008-0.004,0.016-0.005,0.024   c-0.015,0.32-0.026,0.64-0.041,0.96L40.058,92.331z M42.953,92.912c0.406,0.066,0.815,0.123,1.225,0.178V47.953h-1.225V92.912z    M48.057,45.052h-8.984l0.436,0.436h8.112L48.057,45.052z M38.557,43.095l0.24,0.55h9.536l0.24-0.55H38.557z M48.242,44.173h-9.354   v0.694l0.034,0.034h9.286l0.034-0.034V44.173z M47.964,42.567l-1.087-1.086h-6.623l-1.087,1.086H47.964z M47.341,40.379H39.79   v0.574h7.551V40.379z M44.87,39.851V38.28h-2.609v1.571H44.87z M45.287,37.048h-3.442v0.703h3.442V37.048z M44.507,36.52v-13.73   h-1.882v13.73H44.507z M45.049,21.742h-2.967l0.407,0.521h2.153L45.049,21.742z M41.952,21.351v0.224l0.012,0.016h3.203   l0.012-0.015v-0.225H41.952z M43.065,12.716v7.367h1v-7.367H43.065z M44.432,20.823l-0.211-0.211h-1.31l-0.211,0.211H44.432z    M43.636,12.188V7.893h-0.14v4.295H43.636z M50,93.492c0.707,0,1.409-0.02,2.108-0.053v-7.984h-4.216v7.984   C48.591,93.472,49.293,93.492,50,93.492z M93.492,50c0-23.981-19.51-43.491-43.491-43.491c-2.095,0-4.154,0.158-6.171,0.445v0.411   h0.07c0.146,0,0.264,0.118,0.264,0.264v4.559h0.166c0.146,0,0.264,0.118,0.264,0.264v7.786l0.585,0.585h0.264   c0.146,0,0.264,0.118,0.264,0.264v0.58c0,0.057-0.022,0.107-0.052,0.15c-0.003,0.004-0.001,0.009-0.003,0.013l-0.617,0.789V36.52   h0.516c0.146,0,0.264,0.118,0.264,0.264v1.231c0,0.146-0.118,0.264-0.264,0.264h-0.152v1.571h2.207   c0.146,0,0.264,0.118,0.264,0.264v1.102c0,0.14-0.11,0.252-0.248,0.261l1.09,1.09h0.267c0.001,0,0.001,0,0.002,0   c0.014,0,0.027,0.006,0.04,0.008c0.021,0.004,0.043,0.005,0.062,0.013c0,0,0.001,0,0.001,0c0.009,0.004,0.015,0.011,0.023,0.016   c0.022,0.012,0.043,0.025,0.06,0.042c0.011,0.012,0.018,0.026,0.027,0.04c0.01,0.015,0.022,0.028,0.029,0.045   c0.008,0.021,0.01,0.043,0.013,0.065c0.002,0.012,0.007,0.022,0.007,0.034c0,0.001,0,0.001,0,0.002c0,0.016-0.007,0.031-0.01,0.047   c-0.004,0.019-0.005,0.038-0.012,0.055c0,0,0,0.001,0,0.001l-0.449,1.027v1.013c0,0.073-0.03,0.139-0.077,0.187l-0.5,0.5   c0.321,0.201,0.542,0.537,0.579,0.932c0.064,0.683-0.44,1.292-1.123,1.356c-0.008,0.001-0.016,0.001-0.025,0.001h0h-1.801   c0.213,6.086,0.433,12.316,0.668,18.611c2.354-0.17,4.735-0.168,7.089,0.006V54.118c0-0.146,0.118-0.264,0.264-0.264h1.325h1.801   v-1.459c0-0.146,0.118-0.264,0.264-0.264h1.629V43.18c0-0.146,0.118-0.264,0.264-0.264s0.264,0.118,0.264,0.264v8.951h1.589v-6.523   c0-0.146,0.118-0.264,0.264-0.264c0.146,0,0.264,0.118,0.264,0.264v6.523h2.419c0.146,0,0.264,0.118,0.264,0.264v1.459h1.801h1.325   c0.146,0,0.264,0.118,0.264,0.264v15.613c5.504,2.136,10.504,5.221,14.887,9.163C89.318,71.205,93.492,61.083,93.492,50z"/></g><text x="0" y="115" fill="#000000" font-size="5px" font-weight="bold" font-family="'Helvetica Neue', Helvetica, Arial-Unicode, Arial, Sans-serif">Created by Vonn Weisenberger</text><text x="0" y="120" fill="#000000" font-size="5px" font-weight="bold" font-family="'Helvetica Neue', Helvetica, Arial-Unicode, Arial, Sans-serif">from the Noun Project</text></svg>